<?xml version="1.0" standalone="no"?>
<!DOCTYPE svg PUBLIC "-//W3C//DTD SVG 1.1//EN" "http://www.w3.org/Graphics/SVG/1.1/DTD/svg11.dtd">

<svg width="245" height="240" version="1.1" xmlns="http://www.w3.org/2000/svg">
	<ellipse stroke="black" stroke-width="1" fill="none" cx="120.5" cy="50.5" rx="30" ry="30"/>
	<text x="95.5" y="56.5" font-family="Times New Roman" font-size="20">World</text>
	<ellipse stroke="black" stroke-width="1" fill="none" cx="47.5" cy="131.5" rx="30" ry="30"/>
	<text x="28.5" y="137.5" font-family="Times New Roman" font-size="20">Pit 1</text>
	<ellipse stroke="black" stroke-width="1" fill="none" cx="193.5" cy="131.5" rx="30" ry="30"/>
	<text x="174.5" y="137.5" font-family="Times New Roman" font-size="20">Pit 2</text>
	<polygon stroke="black" stroke-width="1" points="100.416,72.785 67.584,109.215"/>
	<polygon fill="black" stroke-width="1" points="67.584,109.215 76.654,106.62 69.226,99.925"/>
	<text x="53.5" y="82.5" font-family="Times New Roman" font-size="20">0.5</text>
	<polygon stroke="black" stroke-width="1" points="140.584,72.785 173.416,109.215"/>
	<polygon fill="black" stroke-width="1" points="173.416,109.215 171.774,99.925 164.346,106.62"/>
	<text x="126.5" y="111.5" font-family="Times New Roman" font-size="20">0.5</text>
	<path stroke="black" stroke-width="1" fill="none" d="M 60.725,158.297 A 22.5,22.5 0 1 1 34.275,158.297"/>
	<text x="42.5" y="220.5" font-family="Times New Roman" font-size="20">1</text>
	<polygon fill="black" stroke-width="1" points="34.275,158.297 25.527,161.83 33.618,167.708"/>
	<path stroke="black" stroke-width="1" fill="none" d="M 206.725,158.297 A 22.5,22.5 0 1 1 180.275,158.297"/>
	<text x="188.5" y="220.5" font-family="Times New Roman" font-size="20">1</text>
	<polygon fill="black" stroke-width="1" points="180.275,158.297 171.527,161.83 179.618,167.708"/>
</svg>
